# xmcd CD database file
#
# Track frame offsets:
#	150
#	21781
#	41032
#	59085
#	82197
#	104202
#	121801
#	146002
#	164566
#	182245
#
# Disc length: 2728 seconds
#
# Revision: 0
# Processed by: cddbd v1.5.2PL0 Copyright (c) Steve Scherf et al.
# Submitted via: CDex 1.70beta2
#
DISCID=990aa60a
DTITLE=Billy Jones - My Hometown
DYEAR=2007
DGENRE=Blues
TTITLE0=Here With You
TTITLE1=Pull My 44
TTITLE2=Right Now
TTITLE3=Crystal
TTITLE4=Never Let You Go
TTITLE5=The Clown
TTITLE6=My Hometown
TTITLE7=You Upset My Soul
TTITLE8=The Rumor
TTITLE9=Bluez Comes Callin
EXTD=YEAR: 2007
EXTT0=
EXTT1=
EXTT2=
EXTT3=
EXTT4=
EXTT5=
EXTT6=
EXTT7=
EXTT8=
EXTT9=
PLAYORDER=
